<?xml version="1.0" standalone="no"?>
<!DOCTYPE svg PUBLIC "-//W3C//DTD SVG 20010904//EN"
 "http://www.w3.org/TR/2001/REC-SVG-20010904/DTD/svg10.dtd">
<svg version="1.0" xmlns="http://www.w3.org/2000/svg"
 width="800.000000pt" height="800.000000pt" viewBox="0 0 800.000000 800.000000"
 preserveAspectRatio="xMidYMid meet">
<metadata>
Created by potrace 1.14, written by Peter Selinger 2001-2017
</metadata>
<g transform="translate(0.000000,800.000000) scale(0.100000,-0.100000)"
fill="#000000" stroke="none">
<path d="M3850 7976 c-109 -30 -207 -106 -253 -198 -37 -73 -42 -97 -42 -200
0 -47 -3 -84 -7 -81 -5 2 -8 0 -8 -4 0 -5 -15 -9 -32 -10 -63 -3 -93 -8 -100
-18 -5 -6 -8 -5 -8 3 0 7 -4 11 -9 8 -5 -3 -26 -8 -46 -11 -21 -2 -47 -14 -57
-25 -16 -18 -38 -20 -38 -4 0 3 5 2 10 -1 6 -3 10 -1 10 4 0 14 -13 14 -28 -1
-7 -7 -12 -8 -12 -4 0 5 -7 3 -15 -4 -13 -11 -15 -10 -9 6 5 18 5 18 -6 1 -6
-9 -16 -14 -22 -11 -6 4 -8 2 -4 -4 3 -6 2 -13 -4 -17 -17 -10 -11 -25 8 -19
14 5 14 4 2 -4 -8 -6 -18 -8 -24 -5 -5 4 -7 -1 -3 -11 4 -10 3 -15 -3 -11 -6
3 -10 2 -10 -4 0 -5 -11 -8 -25 -6 -19 2 -23 -1 -15 -10 8 -10 8 -15 -1 -21
-7 -4 -9 -3 -6 3 4 6 -4 11 -18 11 -14 0 -28 -4 -31 -9 -3 -5 1 -6 9 -3 8 3
18 0 23 -7 4 -7 3 -10 -4 -5 -6 3 -13 2 -17 -4 -3 -5 2 -10 12 -11 11 0 13 -3
5 -6 -6 -2 -10 -8 -7 -13 3 -4 -3 -6 -14 -3 -10 3 -22 -1 -26 -8 -6 -8 -4 -10
5 -4 9 5 11 4 6 -4 -6 -9 -11 -9 -24 1 -13 11 -15 10 -9 -4 6 -16 -1 -22 -23
-20 -3 0 -6 -8 -6 -19 0 -10 3 -19 6 -19 4 0 7 -7 7 -15 0 -8 -7 -15 -14 -15
-8 0 -11 -4 -8 -10 3 -5 1 -10 -4 -10 -6 0 -11 -7 -11 -15 0 -9 -6 -18 -14
-21 -8 -3 -12 -12 -10 -19 3 -7 0 -16 -5 -20 -6 -3 -9 -11 -6 -16 4 -5 2 -9
-2 -9 -14 0 -14 -50 0 -51 6 0 1 -5 -12 -10 -19 -8 -21 -12 -11 -24 9 -11 9
-15 1 -15 -7 0 -10 -4 -6 -9 3 -6 -3 -14 -12 -20 -10 -6 -13 -11 -8 -11 6 0
11 -9 11 -19 0 -11 -5 -17 -10 -14 -5 4 -7 -3 -4 -15 4 -12 2 -24 -2 -27 -5
-3 -7 -13 -6 -23 2 -9 -2 -20 -8 -24 -7 -5 -7 -8 3 -8 10 0 10 -6 -4 -26 -9
-15 -12 -23 -6 -20 7 5 10 -35 8 -134 -1 -77 0 -140 3 -140 13 0 4 -96 -10
-108 -8 -8 -9 -11 -2 -7 8 4 12 -3 12 -25 0 -18 -4 -29 -10 -25 -5 3 -10 2
-10 -4 0 -5 5 -11 12 -13 7 -3 8 -9 3 -19 -5 -8 -11 -23 -12 -33 -2 -11 -4
-20 -6 -21 -1 -1 -58 -32 -127 -70 -69 -38 -178 -99 -242 -137 -64 -37 -121
-68 -127 -68 -5 0 -11 -4 -13 -8 -6 -15 -131 -80 -178 -92 -74 -20 -83 -21
-135 -21 -56 0 -92 6 -195 31 -164 40 -408 -106 -502 -300 -50 -103 -66 -185
-63 -318 1 -60 5 -114 8 -119 3 -5 9 -25 12 -44 9 -51 43 -148 70 -197 l24
-43 -32 -14 c-30 -13 -198 -15 -237 -3 -74 22 -103 27 -155 23 -33 -2 -67 -5
-75 -7 -38 -10 -90 -33 -90 -40 0 -4 -9 -8 -20 -8 -11 0 -20 -4 -20 -8 0 -4
-14 -16 -31 -26 -28 -17 -112 -96 -146 -139 -16 -20 -69 -125 -77 -154 -41
-137 -39 -313 8 -468 20 -67 30 -95 37 -95 4 0 10 -13 14 -29 3 -16 12 -34 19
-40 13 -11 67 -126 81 -171 1 -3 14 -43 29 -90 29 -87 103 -341 132 -450 2 -8
15 -58 29 -110 14 -52 28 -106 30 -120 3 -14 9 -34 12 -45 20 -62 26 -110 26
-235 1 -166 -14 -297 -48 -431 -8 -30 -17 -66 -19 -80 -2 -13 -5 -25 -7 -26
-1 -2 -3 -7 -4 -13 -1 -5 -4 -12 -5 -15 -1 -3 -3 -8 -5 -12 -1 -5 -5 -21 -10
-38 -4 -16 -24 -68 -43 -115 -56 -138 -70 -191 -67 -262 5 -102 59 -189 171
-275 30 -23 185 -102 239 -122 17 -6 44 -16 60 -22 17 -7 35 -13 41 -14 6 -2
48 -14 95 -28 86 -26 136 -40 154 -42 6 -1 17 -5 25 -8 32 -12 181 -43 250
-51 97 -12 136 -17 160 -21 14 -3 52 -7 85 -11 33 -3 71 -8 85 -10 14 -2 50
-6 80 -9 30 -3 75 -8 100 -11 25 -3 63 -7 85 -9 42 -4 109 -11 185 -21 57 -7
160 -14 272 -18 73 -3 98 -9 152 -35 36 -17 85 -50 109 -74 52 -50 117 -135
117 -153 0 -7 3 -14 8 -16 4 -1 22 -33 40 -69 46 -93 82 -128 159 -155 56 -19
173 -21 218 -4 17 7 39 14 50 15 35 5 222 98 265 132 8 7 47 36 86 65 145 107
370 327 510 498 16 19 31 37 34 40 15 14 144 176 204 255 37 50 73 97 80 106
19 23 182 254 250 354 19 28 54 71 78 96 23 26 70 77 103 114 33 38 65 73 70
79 8 9 56 69 198 246 7 8 23 31 37 50 14 19 30 42 37 50 23 29 78 105 103 142
14 21 28 38 33 38 4 0 7 6 7 14 0 8 3 16 8 18 4 1 25 30 47 63 22 33 66 97 98
142 31 45 57 85 57 88 0 4 8 17 18 30 41 54 112 165 112 176 0 5 5 9 10 9 6 0
10 5 10 11 0 6 14 30 30 54 17 24 30 46 30 50 0 3 11 21 25 39 14 18 25 38 25
44 0 7 5 12 10 12 6 0 10 4 10 9 0 5 23 47 51 93 29 46 60 97 69 113 186 320
320 556 320 563 0 5 7 15 15 22 9 7 14 15 11 17 -2 2 10 28 28 57 17 28 47 83
66 122 19 38 38 71 41 74 6 5 77 140 195 370 32 63 62 117 67 118 4 2 7 12 7
22 0 10 4 21 9 24 5 3 82 153 171 333 89 181 168 340 176 355 8 14 14 33 14
42 0 9 4 16 8 16 7 0 33 60 33 77 0 5 6 17 12 28 12 19 36 76 92 220 26 66 90
259 87 262 0 2 5 21 14 44 8 23 12 44 9 47 -3 3 -1 10 4 16 5 6 22 74 37 151
21 111 27 169 27 280 0 185 -9 248 -53 355 -124 300 -431 436 -925 411 -11 -1
-27 -1 -35 0 -16 1 -111 -8 -170 -16 -19 -3 -55 -8 -80 -11 -25 -3 -101 -17
-170 -31 -69 -13 -136 -26 -150 -28 -14 -2 -50 -11 -80 -19 -30 -9 -66 -18
-80 -21 -14 -2 -81 -21 -150 -40 -69 -20 -132 -38 -140 -40 -8 -2 -80 -24
-160 -50 -80 -26 -168 -55 -197 -64 -29 -9 -55 -20 -59 -24 -4 -4 -14 -7 -23
-7 -9 0 -29 -7 -45 -15 -15 -8 -32 -15 -37 -15 -5 0 -61 -20 -126 -45 -179
-69 -196 -76 -225 -92 -16 -8 -28 -11 -28 -7 0 3 -7 1 -15 -6 -8 -7 -15 -9
-15 -5 0 4 -6 3 -13 -3 -6 -6 -37 -20 -67 -32 -30 -12 -66 -27 -80 -33 -14 -6
-27 -11 -30 -12 -3 -1 -14 -5 -25 -9 -73 -28 -77 -28 -64 -5 7 14 7 19 -3 17
-7 -2 -14 7 -16 20 -2 14 -8 20 -15 15 -8 -4 -8 -1 1 9 10 13 10 19 -3 32 -17
16 -49 11 -38 -7 3 -6 1 -7 -6 -3 -6 4 -9 11 -6 16 3 5 0 12 -5 15 -8 5 -5 14
7 28 l18 22 -22 -19 c-16 -13 -26 -16 -35 -9 -7 6 -21 9 -31 8 -9 -2 -15 1
-12 5 3 5 1 11 -5 15 -5 3 -10 12 -10 18 0 7 7 3 15 -7 8 -11 15 -16 15 -11 0
4 9 0 19 -9 14 -13 21 -14 27 -5 4 7 3 10 -4 5 -10 -6 -26 10 -27 26 0 3 -4
10 -9 15 -5 5 -6 2 -1 -6 5 -9 3 -12 -6 -9 -8 3 -13 11 -11 17 1 8 -2 9 -9 5
-9 -5 -10 -2 -6 9 3 9 1 19 -5 23 -7 4 -8 3 -4 -4 4 -7 3 -12 -3 -12 -19 0
-21 19 -4 29 10 6 13 11 6 11 -13 0 -26 -17 -29 -38 -1 -6 1 -10 6 -7 4 3 13
-2 20 -10 9 -10 9 -15 1 -15 -6 0 -11 4 -11 9 0 6 -9 8 -20 6 -11 -2 -20 0
-20 6 0 5 4 9 8 9 5 0 8 14 8 30 0 17 -4 30 -9 30 -5 0 -7 -7 -4 -15 4 -8 1
-17 -6 -21 -7 -4 -9 -4 -5 1 4 4 3 16 -3 27 -8 15 -4 33 20 81 31 64 41 101
46 174 11 167 -113 343 -280 395 -48 15 -166 17 -215 4z m575 -816 c3 -5 1
-10 -4 -10 -6 0 -11 5 -11 10 0 6 2 10 4 10 3 0 8 -4 11 -10z m64 -23 c8 -10
7 -14 -2 -14 -8 0 -14 6 -14 14 0 7 1 13 2 13 2 0 8 -6 14 -13z"/>
<path d="M4375 7281 c-3 -5 -2 -12 3 -15 5 -3 9 1 9 9 0 17 -3 19 -12 6z"/>
<path d="M4450 7169 c0 -5 5 -7 10 -4 6 3 10 8 10 11 0 2 -4 4 -10 4 -5 0 -10
-5 -10 -11z"/>
<path d="M2790 6659 c0 -5 5 -7 10 -4 6 3 10 8 10 11 0 2 -4 4 -10 4 -5 0 -10
-5 -10 -11z"/>
<path d="M7411 4939 c-85 -16 -146 -79 -160 -166 -24 -153 140 -271 280 -202
81 40 121 124 101 215 -16 79 -69 135 -140 149 -12 2 -25 6 -30 8 -4 2 -27 0
-51 -4z"/>
<path d="M405 2890 c-169 -38 -210 -255 -67 -355 37 -26 52 -30 106 -29 51 0
71 5 107 28 99 63 118 211 39 295 -51 52 -120 76 -185 61z"/>
<path d="M6259 2696 c-2 -3 -24 -7 -49 -11 -25 -4 -74 -18 -110 -32 -206 -83
-354 -269 -395 -498 -7 -41 -7 -165 0 -195 3 -14 9 -38 12 -55 8 -49 50 -143
87 -199 220 -332 688 -388 974 -116 185 175 248 423 171 668 -65 207 -256 379
-476 428 -34 7 -208 15 -214 10z"/>
<path d="M5335 1622 c-85 -40 -127 -104 -131 -198 -4 -75 20 -129 78 -178 56
-48 120 -61 211 -43 32 6 99 62 123 103 62 106 26 238 -83 305 -48 30 -146 35
-198 11z"/>
<path d="M1690 789 c-106 -20 -225 -110 -274 -207 -70 -141 -53 -314 42 -432
20 -25 40 -46 43 -48 4 -2 18 -12 31 -24 102 -91 309 -101 439 -22 224 136
263 437 79 622 -46 47 -126 94 -180 107 -44 10 -134 12 -180 4z"/>
</g>
</svg>
