<svg id="Layer_1" data-name="Layer 1" xmlns="http://www.w3.org/2000/svg" xmlns:xlink="http://www.w3.org/1999/xlink" viewBox="0 0 1920 1080"><defs><style>.cls-1,.cls-11,.cls-12,.cls-13,.cls-14,.cls-15,.cls-16,.cls-17,.cls-18,.cls-2,.cls-3,.cls-4,.cls-5,.cls-6,.cls-7,.cls-8,.cls-9{fill:none;stroke-miterlimit:10;}.cls-1,.cls-18,.cls-2,.cls-3,.cls-6,.cls-7,.cls-9{stroke-width:8px;}.cls-1,.cls-10,.cls-2,.cls-21,.cls-22,.cls-3,.cls-4,.cls-5,.cls-6,.cls-7,.cls-8,.cls-9{opacity:0.06;}.cls-1{stroke:url(#linear-gradient);}.cls-2{stroke:url(#linear-gradient-2);}.cls-3{stroke:url(#linear-gradient-3);}.cls-12,.cls-16,.cls-4,.cls-5,.cls-8{stroke-width:5px;}.cls-4{stroke:url(#linear-gradient-4);}.cls-5{stroke:url(#linear-gradient-5);}.cls-6{stroke:url(#linear-gradient-6);}.cls-7{stroke:url(#linear-gradient-7);}.cls-8{stroke:url(#linear-gradient-8);}.cls-9{stroke:url(#linear-gradient-9);}.cls-11,.cls-12,.cls-14{stroke:#1c76bd;}.cls-11,.cls-12,.cls-13,.cls-14,.cls-15,.cls-16,.cls-17,.cls-18{stroke-linecap:round;}.cls-11{stroke-width:10px;}.cls-13,.cls-15,.cls-16,.cls-17,.cls-18{stroke:#2aa3f4;}.cls-13{stroke-width:11px;}.cls-14,.cls-15{stroke-width:9px;}.cls-17{stroke-width:12px;}.cls-19,.cls-21{fill:#2aa3f4;}.cls-20,.cls-22{fill:#1c76bd;}</style><linearGradient id="linear-gradient" x1="253.33" y1="295.86" x2="308.04" y2="295.86" gradientUnits="userSpaceOnUse"><stop offset="0" stop-color="#1c75bc"/><stop offset="1" stop-color="#27aae1"/></linearGradient><linearGradient id="linear-gradient-2" x1="936.5" y1="157.96" x2="1009.56" y2="157.96" xlink:href="#linear-gradient"/><linearGradient id="linear-gradient-3" x1="248.79" y1="739.12" x2="324.5" y2="739.12" xlink:href="#linear-gradient"/><linearGradient id="linear-gradient-4" x1="397.35" y1="385.06" x2="470.52" y2="385.06" xlink:href="#linear-gradient"/><linearGradient id="linear-gradient-5" x1="606.88" y1="871.46" x2="698.76" y2="871.46" xlink:href="#linear-gradient"/><linearGradient id="linear-gradient-6" x1="1528.5" y1="628.03" x2="1734.21" y2="628.03" xlink:href="#linear-gradient"/><linearGradient id="linear-gradient-7" x1="673.46" y1="719.7" x2="750.65" y2="719.7" xlink:href="#linear-gradient"/><linearGradient id="linear-gradient-8" x1="1448.16" y1="781.87" x2="1774.14" y2="781.87" xlink:href="#linear-gradient"/><linearGradient id="linear-gradient-9" x1="853.6" y1="212.45" x2="968.69" y2="212.45" xlink:href="#linear-gradient"/></defs><circle class="cls-1" cx="280.69" cy="295.86" r="23.36"/><circle class="cls-2" cx="973.03" cy="157.96" r="32.53"/><circle class="cls-3" cx="286.65" cy="739.12" r="33.85"/><polygon class="cls-4" points="456.06 418.96 402.29 374.87 467.35 350.35 456.06 418.96"/><polygon class="cls-5" points="681.05 915.23 611.82 858.46 695.59 826.89 681.05 915.23"/><circle class="cls-6" cx="1631.35" cy="628.03" r="98.85"/><circle class="cls-7" cx="712.05" cy="719.7" r="34.59"/><polygon class="cls-8" points="1715.79 949.06 1453.09 733.68 1770.97 613.86 1715.79 949.06"/><polygon class="cls-9" points="945.89 265.65 861.49 196.45 963.62 157.96 945.89 265.65"/><g class="cls-10"><line class="cls-11" x1="230.18" y1="423.5" x2="194.88" y2="458.8"/><line class="cls-11" x1="194.88" y1="423.5" x2="230.18" y2="458.8"/></g><g class="cls-10"><line class="cls-11" x1="256.3" y1="653.96" x2="221" y2="689.26"/><line class="cls-11" x1="221" y1="653.96" x2="256.3" y2="689.26"/></g><g class="cls-10"><line class="cls-12" x1="288.09" y1="926.8" x2="252.79" y2="962.1"/><line class="cls-12" x1="252.79" y1="926.8" x2="288.09" y2="962.1"/></g><g class="cls-10"><line class="cls-12" x1="448.3" y1="886.64" x2="413" y2="921.94"/><line class="cls-12" x1="413" y1="886.64" x2="448.3" y2="921.94"/></g><g class="cls-10"><line class="cls-13" x1="1166.37" y1="341.87" x2="1099.94" y2="360.41"/><line class="cls-13" x1="1123.88" y1="317.92" x2="1142.42" y2="384.35"/></g><g class="cls-10"><line class="cls-14" x1="1252.99" y1="156.3" x2="1260.66" y2="200.88"/><line class="cls-14" x1="1234.53" y1="182.42" x2="1279.12" y2="174.76"/></g><g class="cls-10"><line class="cls-15" x1="331.82" y1="495.37" x2="277.01" y2="512.2"/><line class="cls-15" x1="296" y1="476.38" x2="312.83" y2="531.19"/></g><g class="cls-10"><line class="cls-11" x1="1613.24" y1="143.35" x2="1577.94" y2="178.64"/><line class="cls-11" x1="1577.94" y1="143.35" x2="1613.24" y2="178.64"/></g><g class="cls-10"><line class="cls-11" x1="1639.36" y1="373.81" x2="1604.06" y2="409.11"/><line class="cls-11" x1="1604.06" y1="373.81" x2="1639.36" y2="409.11"/></g><g class="cls-10"><line class="cls-15" x1="1739.02" y1="207.81" x2="1635.95" y2="239.46"/><line class="cls-15" x1="1671.66" y1="172.1" x2="1703.31" y2="275.17"/></g><g class="cls-10"><line class="cls-12" x1="528.08" y1="663.61" x2="480.36" y2="678.26"/><line class="cls-12" x1="496.89" y1="647.07" x2="511.54" y2="694.8"/></g><g class="cls-10"><line class="cls-13" x1="642.41" y1="217" x2="595.4" y2="231.44"/><line class="cls-13" x1="611.69" y1="200.71" x2="626.12" y2="247.73"/></g><g class="cls-10"><line class="cls-16" x1="558.15" y1="664.35" x2="538.38" y2="684.11"/><line class="cls-16" x1="538.38" y1="664.35" x2="558.15" y2="684.11"/></g><g class="cls-10"><line class="cls-14" x1="1365.48" y1="771.86" x2="1300.55" y2="836.79"/><line class="cls-14" x1="1300.55" y1="771.86" x2="1365.48" y2="836.79"/></g><g class="cls-10"><line class="cls-16" x1="1362.95" y1="585.38" x2="1335.82" y2="578.63"/><line class="cls-16" x1="1352.76" y1="568.44" x2="1346.01" y2="595.57"/></g><g class="cls-10"><line class="cls-17" x1="1204.1" y1="955.54" x2="1114.99" y2="933.36"/><line class="cls-17" x1="1170.63" y1="899.9" x2="1148.46" y2="989"/></g><g class="cls-10"><line class="cls-18" x1="316.29" y1="127.02" x2="283.64" y2="159.67"/><line class="cls-18" x1="283.64" y1="127.02" x2="316.29" y2="159.67"/></g><g class="cls-10"><path class="cls-19" d="M973,738.19c.77-1.84,1.5-3.69,2.32-5.51q13.08-29,26.21-57.93c1.61-3.56,2.91-4,6.45-2.45,1.77.8,3.57,1.56,5.3,2.43,2.06,1,2.58,2.5,1.79,4.68-.19.53-.45,1-.68,1.55q-11.16,24.69-22.34,49.36a19.19,19.19,0,0,1-1.29,2.07c1.06.52,1.71.85,2.37,1.15l49.7,22.5c3.8,1.72,4.24,2.91,2.52,6.72-.77,1.71-1.5,3.45-2.35,5.13-1,2-2.6,2.56-4.7,1.77-.47-.18-.92-.41-1.37-.61L976.8,741.82c-1-.46-2-1-3-1.52Z"/><path class="cls-19" d="M1064.51,633.36c.07.7.18,1.5.25,2.31q5.51,69.14,11,138.26c.28,3.54-.68,4.7-4.15,5l-4.3.4c-3.42.3-4.68-.77-5-4.22q-1.29-16-2.56-32l-8.43-106.46c-.29-3.65.65-4.79,4.23-5.13,1.74-.17,3.49-.34,5.24-.45A3.53,3.53,0,0,1,1064.51,633.36Z"/><path class="cls-19" d="M1136.64,677.86c-1.47-.49-2.21-.66-2.89-1l-49.52-22.4c-3.77-1.7-4.22-2.92-2.5-6.72.78-1.72,1.5-3.46,2.36-5.13,1-2,2.58-2.55,4.7-1.75.53.2,1,.46,1.54.69l60,27.13c3.84,1.73,4.3,2.92,2.59,6.68q-13.65,30.15-27.29,60.31c-1.68,3.7-2.91,4.17-6.58,2.51-1.71-.77-3.45-1.5-5.13-2.34-2.16-1.08-2.7-2.56-1.85-4.81.19-.53.45-1,.68-1.55q11.16-24.68,22.34-49.34A19.77,19.77,0,0,1,1136.64,677.86Z"/></g><g class="cls-10"><path class="cls-20" d="M788,577.93c-4.9-.92-6.38-2.73-6.33-7.75q.12-13.29.25-26.6c0-4.47,1.28-6.15,5.49-7.44l17.54-5.39c.31-.1.62-.2.93-.28,2-.52,3.59.23,4,1.88s-.45,3-2.32,3.63c-5.9,1.84-11.8,3.7-17.74,5.42-1.63.47-2.2,1.12-2.19,2.88,0,8.55-.1,17.1-.18,25.65,0,.62,0,1.25,0,2l143.69-44.12c-.36-.58-.65-1.1-1-1.6-4.92-7.14-9.88-14.26-14.75-21.44a2.21,2.21,0,0,0-3-1q-44.94,13.88-89.93,27.65l-1.48.46c-2.2.63-3.69,0-4.2-1.78s.4-3.11,2.6-3.79L912,497.87c3.19-1,5.52-.19,7.41,2.52q8.22,11.79,16.36,23.62c2.2,3.21,1.71,5.78-1.53,9Z"/><path class="cls-20" d="M857.19,476.69l8,19.42c4.17-1.28,7.83-2.5,11.56-3.49A4.77,4.77,0,0,1,880,493a2.71,2.71,0,0,1-.42,4.73,11.51,11.51,0,0,1-1.82.63l-62.43,19.17c-2.84.87-4.45.4-5-1.46s.54-3.22,3.32-4.08c3.08-.95,6.17-1.85,9.22-2.88.5-.16,1.22-.95,1.15-1.32-1.17-6.5-2.44-13-3.74-19.7l-2.72.83-51,15.65c-7.58,2.33-13.49-.76-15.8-8.28q-14.12-46-28.23-92c-2.3-7.5.87-13.44,8.39-15.75l144.25-44.29c7.63-2.34,13.52.8,15.87,8.46,9.38,30.53,18.66,61.1,28.2,91.57a12.37,12.37,0,0,1-8.56,16.09c-17,4.95-33.88,10.32-50.81,15.51Zm-92.58-.84,131.71-40.44-.71-2.29q-5.7-18.56-11.39-37.11a8.83,8.83,0,0,1-.46-2.25,2.82,2.82,0,0,1,5.37-1.24,13.89,13.89,0,0,1,.69,2l11.34,36.93.7,2.27,7.3-2.24-.63-2.06q-11.52-37.49-23-75c-1.44-4.68-4.1-6.08-8.83-4.62L732.82,394c-4.72,1.45-6.14,4.09-4.7,8.78q11.5,37.48,23,75l.63,2,7.3-2.24-2-6.52c-6.44-21-12.92-42-19.27-63a10.45,10.45,0,0,1-.06-5.41c.61-2.35,2.73-3.35,5-4.05q64.2-19.66,128.36-39.39c.55-.17,1.11-.35,1.67-.47,2.84-.58,6.1.85,7,3.54,2,6,3.86,12.15,5.67,18.26a2.49,2.49,0,0,1-1.78,3.19,2.62,2.62,0,0,1-3.46-1.27,8.43,8.43,0,0,1-.7-1.79q-2.18-7-4.32-14c-.73-2.4-.74-2.4-3.16-1.65L745.15,403.93c-2.4.74-2.4.74-1.65,3.17L764,473.76Zm146.3-38.61L753.7,485.51a2.66,2.66,0,0,0,0,.5q1.23,4.07,2.47,8.13c1.52,4.94,4.05,6.26,9.05,4.73l143.46-44.05c.56-.17,1.12-.33,1.66-.52a5.65,5.65,0,0,0,3.7-6.78C913.12,444.11,912,440.76,910.91,437.24Zm-85.22,49.2c1.49,6.9,2.92,13.59,4.36,20.29l29.42-9-7.78-19.24Z"/><path class="cls-20" d="M827.73,553.18a17,17,0,0,1-2.21.66,2.71,2.71,0,0,1-3.29-2,2.67,2.67,0,0,1,1.61-3.48,26.08,26.08,0,0,1,4.22-1.31,2.87,2.87,0,0,1,1.69,5.47A16.92,16.92,0,0,1,827.73,553.18Z"/><path class="cls-20" d="M839.69,538.63c-.67.21-1.34.46-2,.62a2.7,2.7,0,0,1-3.4-1.77,2.62,2.62,0,0,1,1.43-3.55,18.39,18.39,0,0,1,4.76-1.42,2.58,2.58,0,0,1,3,2.29,2.65,2.65,0,0,1-1.79,3.2A20.52,20.52,0,0,1,839.69,538.63Z"/><path class="cls-20" d="M809.54,547.9c-.62.19-1.22.41-1.84.56a2.87,2.87,0,0,1-1.84-5.43,26.86,26.86,0,0,1,4-1.25,2.87,2.87,0,1,1,1.48,5.55C810.77,547.55,810.15,547.71,809.54,547.9Z"/><path class="cls-20" d="M854.62,534.05c-.62.19-1.22.42-1.84.56a2.86,2.86,0,0,1-1.92-5.37,23.31,23.31,0,0,1,4.4-1.35,2.86,2.86,0,0,1,1.37,5.54C856,533.67,855.29,533.85,854.62,534.05Z"/><path class="cls-20" d="M869.69,529.43c-.61.19-1.22.41-1.84.55a2.87,2.87,0,0,1-1.79-5.44,27.3,27.3,0,0,1,4-1.24,2.87,2.87,0,1,1,1.43,5.56C870.92,529.08,870.3,529.24,869.69,529.43Z"/><path class="cls-20" d="M899.48,520.27c-.67.21-1.34.47-2,.62a2.71,2.71,0,0,1-3.38-1.82,2.65,2.65,0,0,1,1.48-3.53,22.2,22.2,0,0,1,4.39-1.39,2.87,2.87,0,0,1,1.37,5.56c-.6.22-1.22.38-1.84.57Z"/><path class="cls-20" d="M841.19,543a12.28,12.28,0,0,1,2-.6,2.69,2.69,0,0,1,3.26,2,2.64,2.64,0,0,1-1.62,3.45,28.14,28.14,0,0,1-4,1.27,2.89,2.89,0,0,1-3.57-1.83,2.93,2.93,0,0,1,1.91-3.68c.66-.26,1.35-.42,2-.63Z"/><path class="cls-20" d="M887.82,534.74c-.68.2-1.34.47-2,.6a2.87,2.87,0,0,1-1.68-5.47,31.82,31.82,0,0,1,4-1.25,2.87,2.87,0,0,1,1.69,5.49C889.18,534.37,888.49,534.53,887.82,534.74Z"/><path class="cls-20" d="M812.68,557.81c-.67.2-1.33.46-2,.61a2.82,2.82,0,0,1-3.47-1.95,2.78,2.78,0,0,1,1.8-3.54,32.48,32.48,0,0,1,3.86-1.19,2.87,2.87,0,1,1,1.67,5.5C813.92,557.47,813.3,557.62,812.68,557.81Z"/><path class="cls-20" d="M902.48,530.24c-.61.19-1.21.41-1.84.55a2.87,2.87,0,1,1-1.64-5.51,36.16,36.16,0,0,1,3.67-1.13,2.88,2.88,0,1,1,1.65,5.52C903.72,529.89,903.1,530.05,902.48,530.24Z"/><path class="cls-20" d="M884.85,524.77c-.67.21-1.33.45-2,.61a2.68,2.68,0,0,1-3.41-1.73,2.63,2.63,0,0,1,1.39-3.57,19.23,19.23,0,0,1,4.57-1.42,2.66,2.66,0,0,1,3.22,2.07,2.76,2.76,0,0,1-1.91,3.47C886.09,524.43,885.47,524.58,884.85,524.77Z"/><path class="cls-20" d="M872.83,539.35c-.61.18-1.22.41-1.84.55a2.83,2.83,0,0,1-3.63-1.94,2.8,2.8,0,0,1,1.84-3.53,35,35,0,0,1,3.86-1.18,2.9,2.9,0,0,1,3.55,1.86,2.94,2.94,0,0,1-1.94,3.67C874.07,539,873.44,539.16,872.83,539.35Z"/><path class="cls-20" d="M824.64,543.26c-.68.2-1.34.45-2,.61a2.67,2.67,0,0,1-3.37-1.79,2.62,2.62,0,0,1,1.43-3.54,19.43,19.43,0,0,1,4.58-1.41,2.62,2.62,0,0,1,3.18,2.12,2.66,2.66,0,0,1-1.78,3.38C826,542.88,825.31,543.05,824.64,543.26Z"/><path class="cls-20" d="M857.65,544a13.34,13.34,0,0,1-2,.6,2.71,2.71,0,0,1-3.3-2,2.65,2.65,0,0,1,1.59-3.48,24.46,24.46,0,0,1,4.21-1.31,2.82,2.82,0,0,1,3.45,2,2.88,2.88,0,0,1-1.9,3.51c-.66.26-1.35.43-2,.63Z"/><path class="cls-20" d="M802.93,406.44a16.18,16.18,0,0,1-.62,3q-8.94,20.73-17.95,41.43c-.84,1.94-2.38,2.68-4,2s-2.2-2.35-1.32-4.38q9-20.72,17.95-41.43c.58-1.34,1.43-2.48,3-2.18A11.46,11.46,0,0,1,802.93,406.44Z"/><path class="cls-20" d="M784.07,420.12a11,11,0,0,1-.38,2.44c-1.62,3.69-3.28,7.38-5,11a2.87,2.87,0,1,1-5.19-2.45c1.6-3.64,3.17-7.3,5-10.82a4,4,0,0,1,2.84-1.75C782.21,418.52,783.16,419.56,784.07,420.12Z"/><path class="cls-20" d="M833.83,466.29c1.72-.53,3.43-1.1,5.17-1.58,1.91-.52,3.43.19,3.94,1.74a2.93,2.93,0,0,1-2.15,3.73q-5.32,1.72-10.71,3.29a2.93,2.93,0,0,1-3.88-1.87c-.45-1.58.41-3,2.28-3.66S832,466.84,833.83,466.29Z"/></g><path class="cls-21" d="M1360.49,377.48h-4.62l-2.2-.29A38.17,38.17,0,0,1,1329,364.42c-8.69-9.77-11.87-21.24-9.4-34.07A37.6,37.6,0,0,1,1339,303.64c10.18-5.67,21-6.75,32-2.8,14.32,5.17,23,15.48,26,30.42.3,1.47.42,3,.62,4.48v4.77c0,.2-.11.4-.13.6a36.7,36.7,0,0,1-3.56,13.6q-8.94,18.35-29,22.17C1363.44,377.16,1362,377.28,1360.49,377.48Zm-23.4-40.73a69.66,69.66,0,0,1,2.61-18l-10-4a36.74,36.74,0,0,0-8.31,22Zm42.07,0h15.76a36.63,36.63,0,0,0-8.31-22l-10,4A68.63,68.63,0,0,1,1379.16,336.74Zm7.45,24.68a36.65,36.65,0,0,0,8.31-21.94h-15.77a68.21,68.21,0,0,1-2.58,17.94Zm-46.9-4a69.23,69.23,0,0,1-2.62-17.95h-15.75a36.66,36.66,0,0,0,8.32,21.95Zm19.77-36.22v15.54h17a64.9,64.9,0,0,0-2.53-17.28Zm-17.2-1.74a64.75,64.75,0,0,0-2.51,17.29h17V321.2Zm17.19,35.81a71.06,71.06,0,0,1,14.45,1.69,65.61,65.61,0,0,0,2.58-17.48h-17Zm-2.72,0V339.47h-17a65.29,65.29,0,0,0,2.59,17.5A70.64,70.64,0,0,1,1356.75,355.26Zm16.44-38.58c-.88-1.92-1.64-3.79-2.57-5.57a21.86,21.86,0,0,0-5.9-7.4,11.2,11.2,0,0,0-5.24-2.33v16.93A67.41,67.41,0,0,0,1373.19,316.68Zm-13.71,58.06a10,10,0,0,0,5.29-2.31c4.21-3.36,6.43-8,8.34-12.93a65.23,65.23,0,0,0-13.63-1.6Zm-2.72-73.34a4.05,4.05,0,0,0-.42.05,12.6,12.6,0,0,0-6.64,3.93,29.68,29.68,0,0,0-5.83,9.51c-.23.58-.45,1.18-.69,1.81a66.62,66.62,0,0,0,13.58,1.61Zm-13.58,58.09a35,35,0,0,0,5.25,9.88,16.53,16.53,0,0,0,4.16,3.84,9.86,9.86,0,0,0,4.17,1.58V357.9A65.58,65.58,0,0,0,1343.18,359.49Zm5.56-56.93a36.3,36.3,0,0,0-17.18,10,41.8,41.8,0,0,0,9,3.46A34,34,0,0,1,1348.74,302.56Zm27,13.5a41.68,41.68,0,0,0,9-3.46c-4.08-4.56-12.91-9.7-17.24-10A33,33,0,0,1,1375.71,316.06Zm-8.26,57.67a37.06,37.06,0,0,0,17.26-10.14,41.82,41.82,0,0,0-9-3.44C1372.58,367.59,1373.06,367,1367.45,373.73Zm-18.91-.07c-1.56-2.1-3.29-4.11-4.66-6.34s-2.35-4.69-3.55-7.12a41.52,41.52,0,0,0-8.77,3.4A36.63,36.63,0,0,0,1348.54,373.66Z"/><path class="cls-22" d="M1332.35,519c-.33-2.12-.1-4.1,1.58-5.63a9.2,9.2,0,0,1,1.91-1.3q42.67-21.78,85.38-43.52c3.53-1.81,6.58-.8,8.38,2.72l27.14,53.26c1.8,3.52.82,6.58-2.72,8.38q-42.68,21.76-85.37,43.53a6,6,0,0,1-7.66-1.27Zm120.1,6.51-26.36-51.7c-.22.43-.39.74-.54,1q-11.65,23.78-23.33,47.55a12.08,12.08,0,0,1-1.59,2.6,9.77,9.77,0,0,1-9.66,3.42l-52.6-9.14c-.36-.07-.72-.11-1.17-.18l26.34,51.68c.13-.55.23-.92.31-1.28q3.62-17.07,7.25-34.14a4.52,4.52,0,0,1,.37-1.2,1.91,1.91,0,0,1,2.19-1.09,2,2,0,0,1,1.65,1.92,5.36,5.36,0,0,1-.16,1.25q-3.64,17.26-7.32,34.55c-.09.43-.16.87-.27,1.43l83.68-42.65c-.52-.25-.92-.45-1.32-.63l-32.26-14.37a5.42,5.42,0,0,1-1.11-.61,2,2,0,0,1-.57-2.47,1.92,1.92,0,0,1,2.17-1.12,3.94,3.94,0,0,1,1.1.36l25,11.14Zm-113.34-10.38c.36.09.49.14.63.16l52.29,9.09a5.66,5.66,0,0,0,6.22-3.33q11.58-23.58,23.13-47.18c.11-.22.17-.47.31-.83Z"/><g class="cls-10"><path class="cls-19" d="M864.56,900.43c-1.74,0-3.49,0-5.23,0a116.83,116.83,0,0,1-20.89-1.31,36.91,36.91,0,0,1-10.73-3.1,13.77,13.77,0,0,1-2.61-1.63c-3-2.41-3-5.84-.21-8.45a24.73,24.73,0,0,1,7.86-4.61A96.28,96.28,0,0,1,851,876.45c.45-.09.91-.21,1.37-.26a1.63,1.63,0,0,1,1.85,1.35,1.6,1.6,0,0,1-1.31,1.78c-2.41.51-4.84.92-7.24,1.48A61.67,61.67,0,0,0,831,885.7a19.55,19.55,0,0,0-4,2.84c-1.35,1.2-1.18,2.41.24,3.53a17,17,0,0,0,6.3,2.75,74.61,74.61,0,0,0,15.14,2.24,157.68,157.68,0,0,0,25.34-.58,123.32,123.32,0,0,0,27-5.3,31.86,31.86,0,0,0,9.09-4.3c2.73-2,2.64-3.68-.32-5.35a30.75,30.75,0,0,0-9.87-3A99.1,99.1,0,0,0,885,877.12c-.34,0-.68,0-1-.07a1.6,1.6,0,1,1,.16-3.19c1.53,0,3,.11,4.58.2a88.2,88.2,0,0,1,15.36,2.05,25.28,25.28,0,0,1,8.3,3.3c3.55,2.37,3.84,6.18.68,9a27.41,27.41,0,0,1-9.08,5.08,101.91,101.91,0,0,1-20.14,4.91c-2.53.39-5.08.66-7.61,1a6.07,6.07,0,0,0-.82.19Z"/><path class="cls-19" d="M893.23,831.68a32.29,32.29,0,0,1-2.5,14.63,192.55,192.55,0,0,1-20.41,36.84c-.91,1.29-1.92,1.45-2.93.39a175.09,175.09,0,0,1-26.77-35.45A30.21,30.21,0,0,1,845,813a26.42,26.42,0,0,1,22-8.56c12.44,1,20.24,8.07,24.57,19.43a23.64,23.64,0,0,1,1,3.5C892.84,828.78,893,830.24,893.23,831.68ZM868.5,880.06a4.1,4.1,0,0,0,.26-.32,183.25,183.25,0,0,0,19.17-35.06,26.63,26.63,0,0,0,.71-19.39C885,815,878.1,808.51,866.91,807.6a23.39,23.39,0,0,0-19.71,7.67,27,27,0,0,0-3.76,31.33,160.82,160.82,0,0,0,19.67,27.49C864.85,876.08,866.65,878,868.5,880.06Z"/><path class="cls-19" d="M866.08,845.89A13.11,13.11,0,0,1,862.39,820a13.37,13.37,0,0,1,6.56.33,1.62,1.62,0,0,1,1.28,2,1.56,1.56,0,0,1-2.05,1.09,10.46,10.46,0,0,0-6.52.11,9.91,9.91,0,0,0-5.14,14.15,9.77,9.77,0,0,0,12.75,4.17,9.89,9.89,0,0,0,4.87-12.61c-.1-.26-.2-.52-.29-.79a1.59,1.59,0,0,1,.81-2.11,1.62,1.62,0,0,1,2.14,1,13.43,13.43,0,0,1,1.21,6.37A12.86,12.86,0,0,1,866.08,845.89Z"/></g><path class="cls-22" d="M1385.69,984.06a20.54,20.54,0,0,1-7.45-.44,16.72,16.72,0,0,1-11.51-10.77c-.85-2.32-1.49-4.72-2.22-7.09q-12-38.94-23.93-77.88c-1.5-4.87-1.33-9.57,1.32-14,4.23-7,11.33-9.78,19.37-7.7L1427,883.31c5.75,1.5,11.56,2.82,17.22,4.61,10.83,3.42,15,17.09,7.83,25.91-4.51,5.58-9.41,10.84-14.16,16.23q-13.35,15.13-26.7,30.24a5.25,5.25,0,0,1-4,2.15,4.77,4.77,0,0,1-4.13-7.31,12.49,12.49,0,0,1,1.12-1.4l39.38-44.59a7.7,7.7,0,0,0,2.36-5.93c-.29-3.42-2.35-5.7-6.05-6.67L1410,888.78q-25.67-6.67-51.32-13.35c-4.19-1.08-8,.89-9.09,4.79a14.33,14.33,0,0,0-.11,3.77,3.61,3.61,0,0,0,.25.92q12.87,41.91,25.75,83.84c1.13,3.69,3.68,5.74,7.12,5.86a7,7,0,0,0,5-2.14,7.83,7.83,0,0,1,3.1-1.84,4.71,4.71,0,0,1,4.25,7.86c-1.59,1.49-3.41,2.72-5.13,4.06-.22.17-.46.31-.68.46Z"/></svg>